# Blender v2.93.5 OBJ File: 'Dining Table 1.blend'
# www.blender.org
mtllib SM_LoftDiningTable.mtl
o SM_LoftDiningTable_Cube
v -0.660000 1.100000 1.460000
v -0.660000 1.200000 1.460000
v 0.660000 1.100000 1.460000
v 0.660000 1.200000 1.460000
v -0.660000 1.100000 -1.460000
v -0.660000 1.200000 -1.460000
v 0.660000 1.100000 -1.460000
v 0.660000 1.200000 -1.460000
v -0.520000 0.093000 1.247000
v -0.523000 0.087000 1.250000
v -0.517000 0.090000 1.247000
v -0.520000 1.017000 1.247000
v -0.517000 1.020000 1.247000
v -0.523000 1.023000 1.250000
v -0.520000 0.093000 1.153000
v -0.517000 0.090000 1.153000
v -0.523000 0.087000 1.150000
v -0.520000 1.017000 1.153000
v -0.523000 1.023000 1.150000
v -0.517000 1.020000 1.153000
v 0.520000 0.093000 1.247000
v 0.517000 0.090000 1.247000
v 0.523000 0.087000 1.250000
v 0.520000 1.017000 1.247000
v 0.523000 1.023000 1.250000
v 0.517000 1.020000 1.247000
v 0.517000 0.090000 1.153000
v 0.520000 0.093000 1.153000
v 0.523000 0.087000 1.150000
v 0.517000 1.020000 1.153000
v 0.523000 1.023000 1.150000
v 0.520000 1.017000 1.153000
v -0.597000 0.010000 1.247000
v -0.597000 0.013000 1.250000
v -0.600000 0.013000 1.247000
v -0.597000 1.097000 1.250000
v -0.597000 1.100000 1.247000
v -0.600000 1.097000 1.247000
v -0.597000 1.100000 1.153000
v -0.597000 1.097000 1.150000
v -0.600000 1.097000 1.153000
v -0.597000 0.010000 1.153000
v -0.600000 0.013000 1.153000
v -0.597000 0.013000 1.150000
v 0.597000 0.013000 1.150000
v 0.600000 0.013000 1.153000
v 0.597000 0.010000 1.153000
v 0.597000 1.100000 1.153000
v 0.600000 1.097000 1.153000
v 0.597000 1.097000 1.150000
v 0.597000 1.100000 1.247000
v 0.597000 1.097000 1.250000
v 0.600000 1.097000 1.247000
v 0.597000 0.010000 1.247000
v 0.600000 0.013000 1.247000
v 0.597000 0.013000 1.250000
v -0.427000 0.000000 1.227000
v -0.427000 0.003000 1.230000
v -0.430000 0.003000 1.227000
v -0.430000 0.010000 1.227000
v -0.427000 0.010000 1.230000
v -0.427000 0.000000 1.173000
v -0.430000 0.003000 1.173000
v -0.427000 0.003000 1.170000
v -0.427000 0.010000 1.170000
v -0.430000 0.010000 1.173000
v -0.373000 0.000000 1.227000
v -0.370000 0.003000 1.227000
v -0.373000 0.003000 1.230000
v -0.373000 0.010000 1.230000
v -0.370000 0.010000 1.227000
v -0.373000 0.000000 1.173000
v -0.373000 0.003000 1.170000
v -0.370000 0.003000 1.173000
v -0.370000 0.010000 1.173000
v -0.373000 0.010000 1.170000
v 0.373000 0.000000 1.227000
v 0.373000 0.003000 1.230000
v 0.370000 0.003000 1.227000
v 0.370000 0.010000 1.227000
v 0.373000 0.010000 1.230000
v 0.373000 0.000000 1.173000
v 0.370000 0.003000 1.173000
v 0.373000 0.003000 1.170000
v 0.373000 0.010000 1.170000
v 0.370000 0.010000 1.173000
v 0.427000 0.000000 1.227000
v 0.430000 0.003000 1.227000
v 0.427000 0.003000 1.230000
v 0.427000 0.010000 1.230000
v 0.430000 0.010000 1.227000
v 0.427000 0.000000 1.173000
v 0.427000 0.003000 1.170000
v 0.430000 0.003000 1.173000
v 0.430000 0.010000 1.173000
v 0.427000 0.010000 1.170000
v -0.520000 0.093000 -1.247000
v -0.517000 0.090000 -1.247000
v -0.523000 0.087000 -1.250000
v -0.520000 1.017000 -1.247000
v -0.523000 1.023000 -1.250000
v -0.517000 1.020000 -1.247000
v -0.520000 0.093000 -1.153000
v -0.523000 0.087000 -1.150000
v -0.517000 0.090000 -1.153000
v -0.520000 1.017000 -1.153000
v -0.517000 1.020000 -1.153000
v -0.523000 1.023000 -1.150000
v 0.520000 0.093000 -1.247000
v 0.523000 0.087000 -1.250000
v 0.517000 0.090000 -1.247000
v 0.520000 1.017000 -1.247000
v 0.517000 1.020000 -1.247000
v 0.523000 1.023000 -1.250000
v 0.517000 0.090000 -1.153000
v 0.523000 0.087000 -1.150000
v 0.520000 0.093000 -1.153000
v 0.517000 1.020000 -1.153000
v 0.520000 1.017000 -1.153000
v 0.523000 1.023000 -1.150000
v -0.597000 0.010000 -1.247000
v -0.600000 0.013000 -1.247000
v -0.597000 0.013000 -1.250000
v -0.600000 1.097000 -1.247000
v -0.597000 1.100000 -1.247000
v -0.597000 1.097000 -1.250000
v -0.597000 1.100000 -1.153000
v -0.600000 1.097000 -1.153000
v -0.597000 1.097000 -1.150000
v -0.597000 0.010000 -1.153000
v -0.597000 0.013000 -1.150000
v -0.600000 0.013000 -1.153000
v 0.597000 0.010000 -1.153000
v 0.600000 0.013000 -1.153000
v 0.597000 0.013000 -1.150000
v 0.597000 1.097000 -1.150000
v 0.600000 1.097000 -1.153000
v 0.597000 1.100000 -1.153000
v 0.597000 1.100000 -1.247000
v 0.600000 1.097000 -1.247000
v 0.597000 1.097000 -1.250000
v 0.597000 0.010000 -1.247000
v 0.597000 0.013000 -1.250000
v 0.600000 0.013000 -1.247000
v -0.427000 0.000000 -1.227000
v -0.430000 0.003000 -1.227000
v -0.427000 0.003000 -1.230000
v -0.427000 0.010000 -1.230000
v -0.430000 0.010000 -1.227000
v -0.427000 0.000000 -1.173000
v -0.427000 0.003000 -1.170000
v -0.430000 0.003000 -1.173000
v -0.430000 0.010000 -1.173000
v -0.427000 0.010000 -1.170000
v -0.373000 0.000000 -1.227000
v -0.373000 0.003000 -1.230000
v -0.370000 0.003000 -1.227000
v -0.370000 0.010000 -1.227000
v -0.373000 0.010000 -1.230000
v -0.373000 0.000000 -1.173000
v -0.370000 0.003000 -1.173000
v -0.373000 0.003000 -1.170000
v -0.373000 0.010000 -1.170000
v -0.370000 0.010000 -1.173000
v 0.373000 0.000000 -1.227000
v 0.370000 0.003000 -1.227000
v 0.373000 0.003000 -1.230000
v 0.373000 0.010000 -1.230000
v 0.370000 0.010000 -1.227000
v 0.373000 0.000000 -1.173000
v 0.373000 0.003000 -1.170000
v 0.370000 0.003000 -1.173000
v 0.370000 0.010000 -1.173000
v 0.373000 0.010000 -1.170000
v 0.427000 0.000000 -1.227000
v 0.427000 0.003000 -1.230000
v 0.430000 0.003000 -1.227000
v 0.430000 0.010000 -1.227000
v 0.427000 0.010000 -1.230000
v 0.427000 0.000000 -1.173000
v 0.430000 0.003000 -1.173000
v 0.427000 0.003000 -1.170000
v 0.427000 0.010000 -1.170000
v 0.430000 0.010000 -1.173000
v -0.700000 1.103000 1.497000
v -0.697000 1.100000 1.497000
v -0.697000 1.103000 1.500000
v 0.700000 1.103000 1.497000
v 0.697000 1.103000 1.500000
v 0.697000 1.100000 1.497000
v 0.700000 1.197000 1.497000
v 0.697000 1.200000 1.497000
v 0.697000 1.197000 1.500000
v -0.700000 1.197000 1.497000
v -0.697000 1.197000 1.500000
v -0.697000 1.200000 1.497000
v -0.700000 1.103000 -1.497000
v -0.697000 1.103000 -1.500000
v -0.697000 1.100000 -1.497000
v -0.697000 1.197000 -1.500000
v -0.700000 1.197000 -1.497000
v -0.697000 1.200000 -1.497000
v 0.697000 1.100000 -1.497000
v 0.697000 1.103000 -1.500000
v 0.700000 1.103000 -1.497000
v 0.700000 1.197000 -1.497000
v 0.697000 1.197000 -1.500000
v 0.697000 1.200000 -1.497000
vt 0.062488 0.642384
vt 0.062488 0.909917
vt 0.041426 0.909917
vt 0.041426 0.642384
vt 0.882990 0.579617
vt 0.882990 0.813988
vt 0.866409 0.830569
vt 0.866409 0.563036
vt 0.818233 0.847097
vt 0.818233 0.834998
vt 0.830332 0.834998
vt 0.830332 0.847097
vt 0.001094 0.891992
vt 0.001094 0.660309
vt 0.022156 0.660309
vt 0.022156 0.891992
vt 0.204441 0.885270
vt 0.204441 0.642384
vt 0.225503 0.642384
vt 0.225503 0.885270
vt 0.307010 0.642384
vt 0.307010 0.885270
vt 0.285948 0.885270
vt 0.285948 0.642384
vt 0.341816 0.629317
vt 0.341815 0.010307
vt 0.651136 0.011973
vt 0.651138 0.630982
vt 0.332187 0.638387
vt 0.332187 0.001163
vt 0.320152 0.011973
vt 0.320154 0.630983
vt 0.010832 0.629317
vt 0.010830 0.010307
vt 0.660765 0.002902
vt 0.660766 0.640126
vt 0.905396 0.580961
vt 0.905396 0.812644
vt 0.884334 0.812644
vt 0.884334 0.580961
vt 0.826078 0.813988
vt 0.826078 0.579617
vt 0.842658 0.563036
vt 0.842658 0.830569
vt 0.080413 0.658965
vt 0.080413 0.893336
vt 0.063832 0.909917
vt 0.063832 0.642384
vt 0.245616 0.660309
vt 0.266678 0.660309
vt 0.266678 0.867345
vt 0.245616 0.867345
vt 0.844003 0.830569
vt 0.844003 0.563036
vt 0.865065 0.563036
vt 0.865065 0.830569
vt 0.324935 0.658965
vt 0.324935 0.868689
vt 0.308354 0.885270
vt 0.308354 0.642384
vt 0.185171 0.867345
vt 0.164109 0.867345
vt 0.164109 0.660309
vt 0.185171 0.660309
vt 0.243428 0.658965
vt 0.243428 0.868689
vt 0.226847 0.885270
vt 0.226847 0.642384
vt 0.268023 0.868689
vt 0.268023 0.658965
vt 0.284604 0.642384
vt 0.284604 0.885270
vt 0.023501 0.893336
vt 0.023501 0.658965
vt 0.040081 0.642384
vt 0.040081 0.909917
vt 0.831677 0.834998
vt 0.833245 0.834998
vt 0.833245 0.847097
vt 0.831676 0.847097
vt 0.818233 0.833654
vt 0.818233 0.832085
vt 0.830332 0.832085
vt 0.830332 0.833654
vt 0.811563 0.865867
vt 0.799463 0.865867
vt 0.799463 0.853767
vt 0.811563 0.853767
vt 0.816888 0.847098
vt 0.815320 0.847097
vt 0.815320 0.834998
vt 0.816888 0.834998
vt 0.830332 0.848442
vt 0.830332 0.850010
vt 0.818233 0.850010
vt 0.818233 0.848442
vt 0.799463 0.852423
vt 0.799463 0.850855
vt 0.811563 0.850855
vt 0.811563 0.852423
vt 0.798119 0.865867
vt 0.796550 0.865867
vt 0.796551 0.853767
vt 0.798119 0.853767
vt 0.105008 0.658965
vt 0.121589 0.642384
vt 0.121589 0.885270
vt 0.105008 0.868689
vt 0.811563 0.867211
vt 0.811563 0.868780
vt 0.799463 0.868780
vt 0.799463 0.867211
vt 0.812907 0.853767
vt 0.814476 0.853767
vt 0.814476 0.865867
vt 0.812907 0.865867
vt 0.724456 0.830569
vt 0.703394 0.830569
vt 0.703394 0.563036
vt 0.724456 0.563036
vt 0.103664 0.660309
vt 0.103664 0.867344
vt 0.082602 0.867345
vt 0.082602 0.660309
vt 0.799463 0.847098
vt 0.799463 0.834998
vt 0.811563 0.834998
vt 0.811563 0.847098
vt 0.766976 0.579617
vt 0.783557 0.563036
vt 0.783557 0.830569
vt 0.766976 0.813988
vt 0.122933 0.642384
vt 0.143995 0.642384
vt 0.143995 0.885270
vt 0.122933 0.885270
vt 0.388517 0.885270
vt 0.367455 0.885270
vt 0.367455 0.642384
vt 0.388517 0.642384
vt 0.744570 0.580961
vt 0.765632 0.580961
vt 0.765632 0.812644
vt 0.744570 0.812644
vt 0.823889 0.813988
vt 0.807308 0.830569
vt 0.807308 0.563036
vt 0.823889 0.579617
vt 0.742381 0.813988
vt 0.725801 0.830569
vt 0.725801 0.563036
vt 0.742382 0.579617
vt 0.327124 0.867344
vt 0.327124 0.660309
vt 0.348186 0.660309
vt 0.348186 0.867344
vt 0.805964 0.830569
vt 0.784902 0.830569
vt 0.784902 0.563036
vt 0.805964 0.563036
vt 0.406442 0.868689
vt 0.389862 0.885270
vt 0.389862 0.642384
vt 0.406442 0.658965
vt 0.663063 0.580961
vt 0.684125 0.580961
vt 0.684125 0.812644
vt 0.663063 0.812644
vt 0.161920 0.868689
vt 0.145340 0.885270
vt 0.145340 0.642384
vt 0.161920 0.658965
vt 0.349530 0.658965
vt 0.366111 0.642384
vt 0.366111 0.885270
vt 0.349530 0.868689
vt 0.685469 0.579617
vt 0.702050 0.563036
vt 0.702050 0.830569
vt 0.685469 0.813988
vt 0.811563 0.833654
vt 0.799463 0.833654
vt 0.799463 0.832085
vt 0.811563 0.832085
vt 0.812907 0.847098
vt 0.812907 0.834998
vt 0.814476 0.834998
vt 0.814476 0.847098
vt 0.849101 0.834998
vt 0.849101 0.847098
vt 0.837002 0.847098
vt 0.837002 0.834998
vt 0.799463 0.848442
vt 0.811563 0.848442
vt 0.811563 0.850010
vt 0.799463 0.850010
vt 0.798119 0.834998
vt 0.798119 0.847098
vt 0.796550 0.847098
vt 0.796551 0.834998
vt 0.837002 0.848442
vt 0.849102 0.848442
vt 0.849101 0.850010
vt 0.837002 0.850010
vt 0.835658 0.834998
vt 0.835658 0.847098
vt 0.834089 0.847098
vt 0.834089 0.834998
vt 0.953059 0.001094
vt 0.953059 0.671942
vt 0.931997 0.671942
vt 0.931997 0.001094
vt 0.849101 0.833654
vt 0.837002 0.833654
vt 0.837002 0.832085
vt 0.849101 0.832085
vt 0.850446 0.847098
vt 0.850446 0.834998
vt 0.852014 0.834998
vt 0.852014 0.847098
vt 0.616561 0.642384
vt 0.637623 0.642384
vt 0.637623 0.954731
vt 0.616561 0.954730
vt 0.929809 0.001094
vt 0.929809 0.671942
vt 0.908747 0.671942
vt 0.908747 0.001094
vt 0.329781 0.002902
vt 0.329781 0.640126
vt 0.660874 0.642384
vt 0.660874 0.954731
vt 0.639812 0.954731
vt 0.639812 0.642384
vt 0.001203 0.001163
vt 0.001203 0.638387
vt 0.185843 0.868017
vt 0.185171 0.868017
vt 0.185171 0.659637
vt 0.185843 0.659637
vt 0.164109 0.868017
vt 0.163437 0.868017
vt 0.163437 0.659637
vt 0.164109 0.659637
vt 0.884334 0.580289
vt 0.884334 0.580289
vt 0.883662 0.580289
vt 0.267351 0.868017
vt 0.266678 0.868017
vt 0.905396 0.580289
vt 0.906069 0.580289
vt 0.000422 0.659637
vt 0.001094 0.659637
vt 0.865737 0.830569
vt 0.865065 0.831241
vt 0.040754 0.909917
vt 0.040418 0.910253
vt 0.063160 0.909917
vt 0.063496 0.910253
vt 0.225503 0.885942
vt 0.225503 0.885942
vt 0.226175 0.885270
vt 0.307682 0.642384
vt 0.308018 0.642048
vt 0.063160 0.642384
vt 0.063496 0.642048
vt 0.040754 0.642384
vt 0.040418 0.642048
vt 0.865065 0.562364
vt 0.865737 0.563036
vt 0.831004 0.847097
vt 0.830332 0.847770
vt 0.818233 0.847770
vt 0.817560 0.847097
vt 0.830332 0.834326
vt 0.831004 0.834998
vt 0.817560 0.834998
vt 0.818233 0.834326
vt 0.811563 0.853095
vt 0.812235 0.853767
vt 0.812235 0.865867
vt 0.811563 0.866539
vt 0.798791 0.853767
vt 0.799463 0.853095
vt 0.799463 0.866539
vt 0.798791 0.865867
vt 0.103664 0.659637
vt 0.104336 0.659637
vt 0.104336 0.868017
vt 0.103664 0.868017
vt 0.081929 0.659637
vt 0.082602 0.659637
vt 0.082602 0.868017
vt 0.081929 0.868017
vt 0.348858 0.868017
vt 0.348186 0.868017
vt 0.348186 0.659637
vt 0.348858 0.659637
vt 0.824561 0.580961
vt 0.824561 0.580289
vt 0.327124 0.659637
vt 0.327124 0.659637
vt 0.326451 0.659637
vt 0.122933 0.641712
vt 0.122933 0.641712
vt 0.122261 0.642384
vt 0.122933 0.885942
vt 0.122261 0.885270
vt 0.143995 0.885942
vt 0.143995 0.885942
vt 0.144667 0.885270
vt 0.806636 0.830569
vt 0.805964 0.831241
vt 0.805964 0.562364
vt 0.806636 0.563036
vt 0.389189 0.642384
vt 0.389525 0.642048
vt 0.367455 0.641712
vt 0.367455 0.641712
vt 0.366783 0.642384
vt 0.784229 0.563036
vt 0.784902 0.562364
vt 0.798791 0.834998
vt 0.799463 0.834326
vt 0.799463 0.847770
vt 0.798791 0.847098
vt 0.811563 0.834326
vt 0.812235 0.834998
vt 0.812235 0.847098
vt 0.811563 0.847770
vt 0.849774 0.847098
vt 0.849101 0.847770
vt 0.849101 0.834326
vt 0.849774 0.834998
vt 0.837002 0.847770
vt 0.836330 0.847098
vt 0.836330 0.834998
vt 0.837002 0.834326
vt 0.331406 0.638484
vt 0.331797 0.638755
vt 0.616561 0.641712
vt 0.615889 0.642384
vt 0.615889 0.642384
vt 0.330562 0.002806
vt 0.330172 0.002535
vt 0.637623 0.955403
vt 0.637623 0.955403
vt 0.638296 0.954731
vt 0.331406 0.001061
vt 0.331797 0.000793
vt 0.639812 0.955403
vt 0.639140 0.954731
vt 0.660839 0.002163
vt 0.661156 0.002534
vt 0.330562 0.640229
vt 0.330172 0.640497
vt 0.204441 0.885942
vt 0.203096 0.885270
vt 0.203096 0.642384
vt 0.204441 0.641712
vt 0.225503 0.641712
vt 0.844003 0.562364
vt 0.307010 0.885942
vt 0.285948 0.885942
vt 0.616561 0.955403
vt 0.637623 0.641712
vt 0.660839 0.640864
vt 0.332114 0.639126
vt 0.638296 0.642384
vt 0.186515 0.658965
vt 0.186516 0.868689
vt 0.825405 0.812644
vt 0.825405 0.580961
vt 0.000422 0.892664
vt 0.244944 0.868017
vt 0.244944 0.659637
vt 0.245616 0.868017
vt 0.831004 0.848442
vt 0.831004 0.850010
vt 0.817560 0.850010
vt 0.817560 0.848442
vt 0.815320 0.834326
vt 0.816888 0.834326
vt 0.831676 0.834326
vt 0.833245 0.834326
vt 0.812907 0.853095
vt 0.814476 0.853095
vt 0.814476 0.866539
vt 0.812907 0.866539
vt 0.798791 0.868780
vt 0.798791 0.867211
vt 0.798791 0.852423
vt 0.798791 0.850855
vt 0.143995 0.641712
vt 0.388517 0.641712
vt 0.660874 0.955403
vt 0.000422 0.638484
vt 0.000422 0.001061
vt 0.661546 0.002805
vt 0.661546 0.640229
vt 0.929809 0.672615
vt 0.908747 0.672615
vt 0.332114 0.000426
vt 0.329855 0.640864
vt 0.001130 0.639127
vt 0.824561 0.812644
vt 0.662390 0.813316
vt 0.662390 0.580289
vt 0.326451 0.868017
vt 0.744570 0.580289
vt 0.765632 0.580289
vt 0.796551 0.834326
vt 0.798119 0.834326
vt 0.798119 0.847770
vt 0.796551 0.847770
vt 0.812235 0.848442
vt 0.812235 0.850010
vt 0.812235 0.832085
vt 0.812235 0.833654
vt 0.852014 0.847770
vt 0.850446 0.847770
vt 0.850446 0.834326
vt 0.852014 0.834326
vt 0.836330 0.833654
vt 0.836330 0.832085
vt 0.836330 0.850010
vt 0.836330 0.848442
vn 0.0000 1.0000 0.0000
vn 0.0000 0.0000 1.0000
vn 0.0000 -1.0000 0.0000
vn -1.0000 0.0000 0.0000
vn 1.0000 0.0000 0.0000
vn 0.0000 0.0000 -1.0000
vn -0.0001 0.0000 1.0000
vn -1.0000 0.0001 0.0000
vn 0.0001 0.0000 1.0000
vn -1.0000 -0.0000 0.0001
vn 0.0001 1.0000 -0.0001
vn -0.0000 -0.0001 -1.0000
vn -0.0001 -1.0000 0.0000
vn -0.0001 0.0000 -1.0000
vn 0.0001 0.0000 -1.0000
vn 1.0000 0.0001 -0.0000
vn 1.0000 -0.0000 -0.0001
vn -0.0001 1.0000 0.0001
vn 0.0000 -0.0001 1.0000
vn 0.0001 -1.0000 -0.0000
vn 0.0001 -0.0001 1.0000
vn -1.0000 0.0000 -0.0001
vn 1.0000 0.0000 0.0001
vn 0.0001 -0.0001 -1.0000
vn -0.0000 1.0000 0.0001
vn 0.0000 0.0001 1.0000
vn -0.0000 1.0000 -0.0001
vn -0.0000 -1.0000 -0.0001
vn 0.0000 0.0001 -1.0000
vn 1.0000 -0.0001 -0.0000
vn 0.0001 1.0000 0.0000
vn -1.0000 -0.0000 0.0002
vn 0.0000 -0.0003 1.0000
vn -1.0000 0.0002 0.0000
vn -1.0000 -0.0002 -0.0000
vn 1.0000 0.0002 -0.0000
vn -0.0000 -0.0003 -1.0000
vn 1.0000 -0.0000 -0.0002
vn 1.0000 -0.0002 0.0000
usemtl None
s off
f 48/1/1 39/2/1 37/3/1 51/4/1
f 23/5/2 10/6/2 34/7/2 56/8/2
f 62/9/3 72/10/3 67/11/3 57/12/3
f 20/13/3 30/14/3 26/15/3 13/16/3
f 35/17/4 38/18/4 41/19/4 43/20/4
f 46/21/5 49/22/5 53/23/5 55/24/5
f 1/25/3 5/26/3 7/27/3 3/28/3
f 5/26/3 1/25/3 186/29/3 199/30/3
f 4/31/1 8/32/1 6/33/1 2/34/1
f 3/28/3 7/27/3 203/35/3 190/36/3
f 27/37/1 16/38/1 11/39/1 22/40/1
f 17/41/6 29/42/6 45/43/6 44/44/6
f 31/45/6 19/46/6 40/47/6 50/48/6
f 28/49/4 21/50/4 24/51/4 32/52/4
f 42/53/3 47/54/3 54/55/3 33/56/3
f 29/57/6 31/58/6 50/59/6 45/60/6
f 9/61/5 15/62/5 18/63/5 12/64/5
f 19/65/6 17/66/6 44/67/6 40/68/6
f 25/69/2 23/70/2 56/71/2 52/72/2
f 14/73/2 25/74/2 52/75/2 36/76/2
f 69/77/2 70/78/2 61/79/2 58/80/2
f 74/81/5 75/82/5 71/83/5 68/84/5
f 82/85/3 92/86/3 87/87/3 77/88/3
f 64/89/6 65/90/6 76/91/6 73/92/6
f 59/93/4 60/94/4 66/95/4 63/96/4
f 89/97/2 90/98/2 81/99/2 78/100/2
f 94/101/5 95/102/5 91/103/5 88/104/5
f 99/105/6 123/106/6 126/107/6 101/108/6
f 84/109/6 85/110/6 96/111/6 93/112/6
f 79/113/4 80/114/4 86/115/4 83/116/4
f 138/117/1 139/118/1 125/119/1 127/120/1
f 97/121/5 100/122/5 106/123/5 103/124/5
f 150/125/3 145/126/3 155/127/3 160/128/3
f 110/129/6 143/130/6 123/131/6 99/132/6
f 122/133/4 132/134/4 128/135/4 124/136/4
f 134/137/5 144/138/5 140/139/5 137/140/5
f 7/27/3 5/26/3 199/30/3 203/35/3
f 115/141/1 111/142/1 98/143/1 105/144/1
f 104/145/2 131/146/2 135/147/2 116/148/2
f 120/149/2 136/150/2 129/151/2 108/152/2
f 117/153/4 119/154/4 112/155/4 109/156/4
f 130/157/3 121/158/3 142/159/3 133/160/3
f 116/161/2 135/162/2 136/163/2 120/164/2
f 107/165/3 102/166/3 113/167/3 118/168/3
f 108/169/2 129/170/2 131/171/2 104/172/2
f 114/173/6 141/174/6 143/175/6 110/176/6
f 101/177/6 126/178/6 141/179/6 114/180/6
f 156/181/6 147/182/6 148/183/6 159/184/6
f 161/185/5 157/186/5 158/187/5 164/188/5
f 170/189/3 165/190/3 175/191/3 180/192/3
f 151/193/2 162/194/2 163/195/2 154/196/2
f 146/197/4 152/198/4 153/199/4 149/200/4
f 176/201/6 167/202/6 168/203/6 179/204/6
f 181/205/5 177/206/5 178/207/5 184/208/5
f 197/209/4 185/210/4 194/211/4 201/212/4
f 171/213/2 182/214/2 183/215/2 174/216/2
f 166/217/4 172/218/4 173/219/4 169/220/4
f 189/221/2 193/222/2 195/223/2 187/224/2
f 188/225/5 205/226/5 206/227/5 191/228/5
f 8/32/1 4/31/1 192/229/1 208/230/1
f 1/25/3 3/28/3 190/36/3 186/29/3
f 204/231/6 198/232/6 200/233/6 207/234/6
f 4/31/1 2/34/1 196/235/1 192/229/1
f 2/34/1 6/33/1 202/236/1 196/235/1
f 6/33/1 8/32/1 208/230/1 202/236/1
f 9/61/5 10/237/2 11/238/1
f 12/64/5 13/239/3 14/240/2
f 15/62/5 16/241/1 17/242/6
f 18/63/5 19/243/6 20/244/3
f 21/245/4 22/246/1 23/247/2
f 24/51/4 25/248/2 26/249/3
f 27/37/1 28/250/4 29/251/6
f 30/14/3 31/252/6 32/253/4
f 33/56/3 34/254/7 35/255/8
f 36/76/9 37/256/1 38/257/10
f 39/258/11 40/47/12 41/259/8
f 42/260/13 43/261/8 44/262/14
f 45/60/15 46/263/16 47/264/3
f 48/265/1 49/266/17 50/48/14
f 51/267/18 52/75/19 53/268/16
f 54/55/20 55/269/16 56/270/9
f 57/12/20 58/271/21 59/272/10
f 62/9/20 63/273/22 64/274/12
f 67/11/13 68/275/23 69/276/7
f 72/10/13 73/277/14 74/278/17
f 77/88/20 78/279/21 79/280/10
f 82/85/20 83/281/22 84/282/12
f 87/87/13 88/283/23 89/284/7
f 92/86/13 93/285/14 94/286/17
f 97/121/5 98/287/1 99/288/6
f 100/122/5 101/289/6 102/290/3
f 103/124/5 104/291/2 105/292/1
f 106/123/5 107/293/3 108/294/2
f 109/156/4 110/295/6 111/296/1
f 112/155/4 113/297/3 114/298/6
f 115/299/1 116/148/2 117/300/4
f 118/301/3 119/302/4 120/303/2
f 121/304/13 122/305/8 123/306/14
f 124/136/8 125/307/11 126/308/12
f 127/309/1 128/310/10 129/311/9
f 130/157/3 131/312/7 132/313/8
f 133/160/20 134/314/16 135/315/9
f 136/163/19 137/316/16 138/317/18
f 139/318/1 140/319/17 141/320/14
f 142/159/3 143/321/15 144/322/16
f 145/126/20 146/323/22 147/324/24
f 150/125/20 151/325/21 152/326/10
f 155/127/13 156/327/14 157/328/17
f 160/128/13 161/329/23 162/330/2
f 165/190/20 166/331/22 167/332/24
f 170/189/20 171/333/21 172/334/10
f 175/191/13 176/335/14 177/336/17
f 180/192/13 181/337/23 182/338/2
f 185/339/4 186/29/3 187/340/2
f 188/341/16 189/342/2 190/343/20
f 191/344/17 192/229/25 193/345/9
f 194/346/4 195/347/26 196/348/27
f 197/349/4 198/350/6 199/30/3
f 200/233/14 201/351/10 202/352/1
f 203/35/28 204/353/29 205/354/5
f 206/355/30 207/356/29 208/230/31
f 42/260/3 33/357/3 35/17/4 43/20/4
f 34/358/2 36/359/2 38/18/4 35/17/4
f 37/360/1 39/361/1 41/19/4 38/18/4
f 40/68/6 44/67/6 43/20/4 41/19/4
f 47/54/3 42/53/3 44/44/6 45/43/6
f 39/2/1 48/1/1 50/48/6 40/47/6
f 49/22/5 46/21/5 45/60/6 50/59/6
f 54/55/3 47/54/3 46/362/5 55/269/5
f 48/363/1 51/364/1 53/23/5 49/22/5
f 52/72/2 56/71/2 55/24/5 53/23/5
f 33/56/3 54/55/3 56/8/2 34/7/2
f 51/4/1 37/3/1 36/76/2 52/75/2
f 187/224/2 195/223/2 194/346/4 185/365/4
f 193/222/2 189/221/2 188/341/5 191/366/5
f 186/29/3 190/36/3 189/367/2 187/368/2
f 192/369/1 196/348/1 195/223/2 193/222/2
f 9/61/17 12/64/17 14/370/2 10/371/2
f 18/63/5 15/62/5 17/242/6 19/243/6
f 29/42/6 17/41/6 16/372/1 27/373/1
f 19/374/6 31/252/6 30/14/3 20/13/3
f 31/375/6 29/376/6 28/49/4 32/52/4
f 24/51/4 21/50/4 23/70/2 25/69/2
f 10/6/2 23/5/2 22/40/1 11/39/1
f 25/74/2 14/73/2 13/16/3 26/15/3
f 11/238/1 16/241/1 15/62/5 9/61/5
f 12/64/5 18/63/5 20/244/3 13/239/3
f 27/37/1 22/40/1 21/245/4 28/250/4
f 32/52/4 24/51/4 26/249/3 30/377/3
f 62/9/3 57/12/3 59/93/4 63/96/32
f 58/378/2 61/379/33 60/94/4 59/93/34
f 65/380/6 64/381/6 63/96/4 66/95/35
f 72/10/3 62/9/3 64/89/6 73/92/6
f 75/382/5 74/383/36 73/92/6 76/91/37
f 67/11/3 72/10/3 74/81/5 68/84/38
f 70/78/2 69/77/2 68/384/5 71/385/39
f 57/12/3 67/11/3 69/77/2 58/80/2
f 82/85/3 77/88/3 79/113/4 83/116/32
f 78/386/2 81/387/33 80/114/4 79/113/34
f 85/388/6 84/389/6 83/116/4 86/115/35
f 92/86/3 82/85/3 84/109/6 93/112/6
f 95/390/5 94/391/36 93/112/6 96/111/37
f 87/87/3 92/86/3 94/101/5 88/104/38
f 90/98/2 89/97/2 88/392/5 91/393/39
f 77/88/3 87/87/3 89/97/2 78/100/2
f 132/134/4 122/133/4 121/304/3 130/394/3
f 122/133/4 124/136/4 126/107/6 123/106/6
f 124/136/4 128/135/4 127/309/1 125/307/1
f 128/135/4 132/134/4 131/171/2 129/170/2
f 135/147/2 131/146/2 130/157/3 133/160/3
f 129/151/2 136/150/2 138/117/1 127/120/1
f 136/163/2 135/162/2 134/137/5 137/140/5
f 144/322/5 134/314/5 133/160/3 142/159/3
f 137/140/5 140/139/5 139/318/1 138/395/1
f 140/139/5 144/138/5 143/175/6 141/174/6
f 123/131/6 143/130/6 142/159/3 121/158/3
f 141/179/6 126/178/6 125/119/1 139/118/1
f 185/339/4 197/349/4 199/30/3 186/29/3
f 197/396/4 201/351/4 200/233/6 198/232/6
f 201/397/4 194/398/4 196/235/1 202/236/1
f 205/399/5 188/400/5 190/36/3 203/35/3
f 191/344/5 206/355/5 208/230/1 192/229/1
f 206/227/5 205/226/5 204/401/6 207/402/6
f 198/403/6 204/353/6 203/35/3 199/30/3
f 207/404/6 200/405/6 202/236/1 208/230/1
f 99/105/6 101/108/6 100/122/23 97/121/23
f 108/294/2 104/291/2 103/124/5 106/123/5
f 115/299/1 105/406/1 104/145/2 116/148/2
f 107/165/3 118/168/3 120/407/2 108/408/2
f 119/154/4 117/153/4 116/409/2 120/303/2
f 114/173/6 110/176/6 109/156/4 112/155/4
f 98/143/1 111/142/1 110/129/6 99/132/6
f 113/167/3 102/166/3 101/177/6 114/180/6
f 97/121/5 103/124/5 105/292/1 98/287/1
f 102/290/3 107/293/3 106/123/5 100/122/5
f 117/410/4 109/411/4 111/142/1 115/141/1
f 118/301/3 113/297/3 112/155/4 119/154/4
f 152/198/4 146/197/32 145/126/3 150/125/3
f 146/197/4 149/200/35 148/412/6 147/413/6
f 153/199/4 152/198/34 151/414/2 154/415/33
f 162/194/2 151/193/2 150/125/3 160/128/3
f 163/195/2 162/194/2 161/416/5 164/417/39
f 157/186/5 161/185/38 160/128/3 155/127/3
f 158/418/5 157/419/36 156/181/6 159/184/37
f 147/182/6 156/181/6 155/127/3 145/126/3
f 172/218/4 166/217/32 165/190/3 170/189/3
f 166/217/4 169/220/35 168/420/6 167/421/6
f 173/219/4 172/218/34 171/422/2 174/423/33
f 182/214/2 171/213/2 170/189/3 180/192/3
f 183/215/2 182/214/2 181/424/5 184/425/39
f 177/206/5 181/205/38 180/192/3 175/191/3
f 178/426/5 177/427/36 176/201/6 179/204/37
f 167/202/6 176/201/6 175/191/3 165/190/3
f 10/371/2 14/370/2 36/359/2 34/358/2
